<mxfile host="app.diagrams.net" modified="2023-08-24T02:49:48.777Z" agent="Mozilla/5.0 (X11; Linux x86_64) AppleWebKit/537.36 (KHTML, like Gecko) Chrome/116.0.0.0 Safari/537.36" version="21.6.9" etag="NZ6PpINHJ1L5vEbkU3Rv" type="github">
  <diagram name="PÃ¡gina-1" id="_b_gvLty3kB1Mi460KoI">
    <mxGraphModel>
      <root>
        <mxCell id="0" />
        <mxCell id="1" parent="0" />
      </root>
    </mxGraphModel>
  </diagram>
</mxfile>
